<?xml version="1.0" encoding="UTF-8" standalone="no"?>
<!DOCTYPE svg PUBLIC "-//W3C//DTD SVG 1.1//EN" "http://www.w3.org/Graphics/SVG/1.1/DTD/svg11.dtd">
<svg xmlns="http://www.w3.org/2000/svg" version="1.1" viewBox="0 0 362 108">
<g stroke-width="2.00" fill="none" stroke-linecap="butt">
<path stroke="#808080" vector-effect="non-scaling-stroke" d="
  M 45.06 0.00
  Q 27.78 3.03 17.82 17.32
  Q 12.32 25.20 11.39 34.68
  Q 11.27 35.81 11.35 38.31
  Q 11.43 41.08 10.94 41.94
  Q 6.58 49.48 0.00 55.19"
/>
<path stroke="#808080" vector-effect="non-scaling-stroke" d="
  M 64.06 0.00
  Q 79.91 2.51 91.36 13.64
  Q 99.86 21.91 103.04 33.35
  Q 105.22 41.20 103.81 48.56
  Q 100.25 67.09 83.31 75.81
  Q 80.23 77.40 75.55 78.89
  Q 68.65 81.09 67.63 81.44
  Q 37.80 91.90 23.69 96.19
  Q 20.26 97.23 16.68 96.08
  Q 13.05 94.92 11.39 92.08
  Q 9.02 88.05 11.06 82.38
  Q 11.85 80.18 9.92 78.87
  Q 6.04 76.23 10.16 73.55
  Q 11.02 72.98 10.05 72.63
  Q 5.45 70.98 7.27 67.94
  Q 9.30 64.59 5.45 63.74
  Q 2.05 62.98 0.00 60.19"
/>
<path stroke="#808080" vector-effect="non-scaling-stroke" d="
  M 20.83 70.79
  Q 21.36 73.00 18.81 73.31
  Q 17.36 73.49 12.94 75.77
  A 0.47 0.47 -28.9 0 0 12.75 76.42
  Q 13.51 77.71 14.01 79.11
  Q 14.50 80.46 14.10 82.42
  Q 13.61 84.80 13.63 87.22
  Q 13.64 89.99 14.94 91.44
  Q 16.59 93.29 19.50 93.25
  Q 22.87 93.21 26.38 91.93
  Q 28.53 91.16 28.65 91.12
  Q 51.38 83.53 74.00 75.62
  Q 83.16 72.42 87.26 69.46
  Q 97.56 62.02 100.18 49.33
  Q 101.55 42.75 100.40 36.64
  Q 99.21 30.25 95.63 24.60
  Q 84.86 7.64 65.10 3.52
  Q 53.16 1.04 41.75 4.25
  Q 21.40 9.98 15.44 30.44
  Q 14.52 33.58 14.65 38.77
  Q 14.71 41.21 13.82 43.03
  Q 10.12 50.56 3.34 56.47
  Q 1.62 57.97 3.52 59.24
  Q 4.34 59.79 5.48 60.32
  Q 5.58 60.36 7.58 61.00
  Q 9.92 61.76 11.09 64.08
  Q 11.89 65.68 10.71 67.55
  A 1.29 1.26 -70.8 0 0 11.64 69.52
  L 20.18 70.28
  A 0.76 0.65 -2.8 0 1 20.83 70.79"
/>
<path stroke="#808080" vector-effect="non-scaling-stroke" d="
  M 241.67 23.96
  A 4.39 4.39 0.0 0 0 237.28 19.57
  A 4.39 4.39 0.0 0 0 232.89 23.96
  A 4.39 4.39 0.0 0 0 237.28 28.35
  A 4.39 4.39 0.0 0 0 241.67 23.96"
/>
<path stroke="#808080" vector-effect="non-scaling-stroke" d="
  M 274.92 59.56
  L 274.61 64.18
  A 0.64 0.58 -81.6 0 0 275.04 64.82
  Q 277.25 65.34 279.46 64.81
  A 0.70 0.69 86.6 0 0 279.99 64.20
  Q 281.20 52.58 282.00 48.75
  Q 284.92 34.69 287.61 20.28
  A 0.44 0.42 -84.4 0 0 287.20 19.76
  L 282.55 19.79
  A 0.64 0.58 -84.0 0 0 281.97 20.31
  L 279.50 32.37
  A 0.92 0.92 12.3 0 1 278.39 33.08
  Q 267.72 30.76 260.92 36.99
  Q 257.59 40.04 255.86 44.87
  Q 254.23 49.43 254.25 54.33
  Q 254.28 59.39 256.17 62.22
  Q 258.89 66.30 264.75 65.50
  Q 270.50 64.72 274.64 59.45
  Q 274.95 59.05 274.92 59.56"
/>
<path stroke="#808080" vector-effect="non-scaling-stroke" d="
  M 132.03 44.92
  Q 140.34 42.24 141.75 34.25
  Q 142.82 28.14 138.62 25.36
  Q 136.16 23.74 130.56 23.37
  Q 125.29 23.03 119.50 23.30
  A 0.80 0.79 4.5 0 0 118.74 23.94
  L 110.59 64.45
  A 0.46 0.46 -84.3 0 0 111.04 65.00
  L 115.83 65.00
  A 0.72 0.72 -84.7 0 0 116.54 64.41
  L 119.80 47.64
  A 1.29 1.28 -87.3 0 1 120.94 46.60
  Q 124.13 46.30 126.04 47.56
  Q 127.44 48.49 128.50 51.61
  Q 130.50 57.49 131.81 63.81
  A 1.36 1.09 82.5 0 0 132.94 64.90
  L 138.01 64.84
  A 0.47 0.40 81.1 0 0 138.37 64.26
  Q 136.39 56.60 134.01 49.07
  Q 133.68 48.05 133.08 47.19
  Q 132.48 46.32 131.86 45.47
  A 0.36 0.35 62.8 0 1 132.03 44.92"
/>
<path stroke="#808080" vector-effect="non-scaling-stroke" d="
  M 312.25 56.55
  L 313.12 64.13
  A 0.93 0.90 86.8 0 0 314.02 64.96
  L 318.94 64.96
  A 0.48 0.45 86.6 0 0 319.38 64.43
  L 314.25 24.06
  A 0.66 0.56 86.4 0 0 313.69 23.48
  L 306.69 23.37
  A 0.91 0.73 -73.2 0 0 305.96 23.87
  L 284.32 64.38
  A 0.40 0.38 -75.5 0 0 284.64 64.97
  L 289.82 64.87
  A 0.99 0.80 -72.2 0 0 290.56 64.38
  L 294.94 56.62
  A 0.90 0.84 -74.0 0 1 295.69 56.17
  L 311.69 56.05
  A 0.57 0.55 86.0 0 1 312.25 56.55"
/>
<path stroke="#808080" vector-effect="non-scaling-stroke" d="
  M 341.66 59.44
  L 347.71 28.80
  A 0.61 0.61 -84.2 0 1 348.31 28.31
  L 356.93 28.19
  A 0.62 0.58 4.3 0 0 357.54 27.70
  L 358.25 23.76
  A 0.44 0.43 4.9 0 0 357.81 23.25
  L 334.06 23.31
  A 0.74 0.58 4.7 0 0 333.36 23.77
  L 332.56 27.69
  A 0.50 0.43 4.7 0 0 333.07 28.20
  L 341.33 28.25
  A 0.43 0.42 5.5 0 1 341.75 28.75
  L 335.62 59.40
  A 0.75 0.74 -84.3 0 1 334.89 60.00
  L 326.43 60.00
  A 0.74 0.66 -83.6 0 0 325.77 60.59
  L 324.96 64.39
  A 0.51 0.46 -83.4 0 0 325.40 65.00
  L 349.45 64.94
  A 0.67 0.59 4.6 0 0 350.10 64.46
  L 350.82 60.51
  A 0.47 0.43 4.6 0 0 350.35 60.00
  L 342.06 59.95
  A 0.43 0.41 -84.2 0 1 341.66 59.44"
/>
<path stroke="#808080" vector-effect="non-scaling-stroke" d="
  M 166.91 59.70
  Q 167.92 58.12 167.75 59.99
  L 167.36 64.44
  A 0.50 0.49 5.1 0 0 167.82 64.98
  Q 168.90 65.08 169.97 65.23
  Q 173.13 65.68 173.13 63.13
  Q 173.12 60.94 173.13 60.87
  Q 174.77 47.30 177.87 33.45
  Q 178.22 31.88 176.77 32.57
  Q 175.21 33.30 173.27 33.35
  Q 172.35 33.37 169.77 32.85
  Q 156.99 30.31 150.44 40.94
  Q 145.79 48.48 147.40 57.76
  Q 147.98 61.11 149.45 62.89
  Q 151.48 65.36 154.75 65.50
  Q 162.96 65.86 166.91 59.70"
/>
<path stroke="#808080" vector-effect="non-scaling-stroke" d="
  M 192.03 38.06
  L 192.51 33.43
  A 0.57 0.48 -86.3 0 0 192.04 32.80
  L 187.69 32.86
  A 0.67 0.58 -85.9 0 0 187.12 33.43
  Q 186.49 37.86 185.98 42.30
  Q 185.44 46.99 184.58 51.12
  Q 181.89 64.01 179.36 77.49
  A 0.43 0.43 -84.9 0 0 179.78 78.00
  L 184.54 78.00
  A 0.63 0.62 -84.3 0 0 185.15 77.49
  L 187.55 65.27
  A 0.64 0.64 11.1 0 1 188.31 64.76
  Q 203.48 67.80 209.80 55.92
  Q 211.69 52.37 212.33 48.21
  Q 212.95 44.16 212.44 40.01
  Q 212.03 36.75 209.95 34.69
  Q 208.09 32.86 204.93 32.50
  Q 197.73 31.67 192.91 38.33
  Q 191.85 39.79 192.03 38.06"
/>
<path stroke="#808080" vector-effect="non-scaling-stroke" d="
  M 232.66 32.60
  Q 227.29 31.72 221.63 34.60
  A 1.15 1.14 -13.6 0 0 221.00 35.62
  L 221.00 39.07
  A 0.60 0.59 76.2 0 0 221.87 39.60
  Q 224.76 38.08 227.60 37.49
  Q 232.85 36.38 231.84 41.72
  Q 230.65 48.05 229.59 54.40
  Q 228.74 59.48 229.50 61.60
  Q 231.00 65.82 237.00 65.50
  Q 241.92 65.24 245.64 63.07
  A 0.99 0.82 -17.4 0 0 246.13 62.32
  L 246.23 58.30
  A 0.34 0.31 -14.1 0 0 245.74 58.04
  Q 242.80 59.49 239.66 60.35
  Q 237.56 60.92 236.37 60.26
  Q 234.58 59.26 235.09 56.52
  Q 236.61 48.27 238.00 40.00
  Q 238.50 37.04 236.85 34.88
  Q 235.47 33.06 232.66 32.60"
/>
<path stroke="#808080" vector-effect="non-scaling-stroke" d="
  M 105.82 103.93
  Q 93.55 98.14 80.56 92.82
  A 0.90 0.89 11.3 0 1 80.00 91.99
  L 80.00 81.73
  Q 80.00 79.50 77.88 80.21
  Q 57.73 86.95 37.09 94.20
  Q 37.05 94.22 35.37 94.67
  Q 32.73 95.37 32.90 98.21
  Q 33.00 99.76 33.00 99.80
  Q 33.00 102.50 33.00 105.01
  A 0.99 0.99 0.0 0 0 33.99 106.00
  Q 69.65 106.00 105.05 106.00
  Q 105.87 106.00 106.40 105.77
  Q 108.14 105.03 105.82 103.93"
/>
<path stroke="#808080" vector-effect="non-scaling-stroke" d="
  M 206.46 97.14
  Q 202.46 94.34 205.06 89.31
  Q 206.83 85.89 210.36 87.43
  Q 211.19 87.80 211.71 87.70
  Q 212.85 87.48 212.58 86.29
  A 0.92 0.81 4.4 0 0 211.97 85.66
  Q 205.81 83.82 203.30 88.09
  Q 201.33 91.43 202.67 95.57
  Q 204.74 101.98 212.72 98.88
  A 0.77 0.71 -11.4 0 0 213.21 98.20
  L 213.23 92.77
  A 0.79 0.76 -0.4 0 0 212.42 92.00
  Q 207.39 92.10 210.88 94.19
  A 1.16 0.99 13.4 0 1 211.41 94.92
  Q 211.88 97.88 209.37 98.05
  Q 207.89 98.15 206.46 97.14"
/>
<path stroke="#808080" vector-effect="non-scaling-stroke" d="
  M 157.13 91.27
  Q 157.10 89.50 158.09 90.92
  L 163.62 98.90
  Q 165.25 101.25 165.25 98.41
  L 165.25 86.25
  A 0.76 0.66 -82.2 0 0 164.79 85.55
  Q 164.18 85.34 163.55 85.44
  A 0.66 0.59 86.4 0 0 163.05 86.07
  L 162.95 93.46
  Q 162.93 94.95 162.04 93.72
  L 156.31 85.78
  Q 155.00 83.96 155.00 86.23
  Q 155.00 91.56 155.00 96.86
  Q 155.00 96.96 154.91 98.14
  Q 154.76 100.17 156.79 99.44
  A 0.72 0.72 -10.9 0 0 157.26 98.75
  L 157.13 91.27"
/>
<path stroke="#808080" vector-effect="non-scaling-stroke" d="
  M 278.1695 85.8182
  A 1.20 1.13 -29.0 0 0 276.5722 85.4117
  A 1.20 1.13 -29.0 0 0 276.0705 86.9818
  A 1.20 1.13 -29.0 0 0 277.6678 87.3883
  A 1.20 1.13 -29.0 0 0 278.1695 85.8182"
/>
<path stroke="#808080" vector-effect="non-scaling-stroke" d="
  M 189.43 91.32
  L 189.75 98.00
  Q 189.85 100.04 193.75 99.75
  Q 195.04 99.65 194.83 98.54
  A 0.65 0.54 -5.9 0 0 194.19 98.11
  Q 192.93 98.18 191.95 97.50
  A 1.11 0.89 21.1 0 1 191.48 96.69
  L 191.48 91.31
  A 0.80 0.74 -10.7 0 1 192.01 90.60
  Q 192.47 90.42 192.98 90.44
  Q 193.75 90.46 193.99 90.32
  Q 194.48 90.03 194.24 89.43
  A 0.69 0.56 -14.7 0 0 193.51 89.10
  Q 190.78 89.57 191.35 87.24
  A 0.62 0.50 -73.8 0 0 191.06 86.54
  Q 190.41 86.32 189.87 86.67
  A 0.94 0.62 74.1 0 0 189.61 87.49
  Q 189.73 88.42 189.11 88.83
  Q 188.49 89.24 188.46 89.27
  Q 187.36 90.37 188.95 90.73
  A 0.63 0.61 -85.3 0 1 189.43 91.32"
/>
<path stroke="#808080" vector-effect="non-scaling-stroke" d="
  M 270.12 88.45
  Q 270.37 85.45 268.39 86.93
  A 1.42 0.88 86.0 0 0 267.96 87.75
  Q 267.86 88.38 267.46 88.80
  Q 266.68 89.61 266.64 89.76
  Q 266.47 90.43 267.33 90.78
  A 0.78 0.67 13.0 0 1 267.81 91.43
  Q 267.81 95.06 268.00 96.50
  Q 268.53 100.51 272.57 99.62
  Q 273.94 99.33 273.27 98.43
  A 1.07 0.76 -14.5 0 0 272.43 98.11
  Q 269.60 98.28 269.83 95.24
  Q 270.00 93.13 270.00 91.46
  A 1.03 1.02 -84.5 0 1 271.22 90.45
  Q 272.49 90.69 272.67 90.05
  A 0.78 0.60 25.1 0 0 272.27 89.28
  Q 271.49 88.84 270.55 88.88
  A 0.40 0.40 0.6 0 1 270.12 88.45"
/>
<path stroke="#808080" vector-effect="non-scaling-stroke" d="
  M 171.56 97.94
  Q 169.12 97.46 169.36 95.18
  A 0.62 0.59 -87.2 0 1 169.94 94.63
  L 176.00 94.54
  A 0.83 0.78 -0.0 0 0 176.81 93.78
  Q 176.89 90.59 174.58 89.51
  Q 172.70 88.64 170.40 89.41
  Q 167.51 90.39 167.14 93.44
  Q 166.83 96.00 168.21 97.95
  Q 170.17 100.73 174.28 99.62
  Q 176.45 99.03 175.36 97.84
  A 0.83 0.69 -28.5 0 0 174.53 97.68
  Q 172.97 98.21 171.56 97.94"
/>
<path stroke="#808080" vector-effect="non-scaling-stroke" d="
  M 182.25 91.96
  Q 180.96 91.20 180.36 89.78
  A 1.17 0.97 83.7 0 0 179.71 89.15
  Q 176.91 88.28 178.58 90.42
  Q 179.80 91.99 180.85 93.75
  A 1.36 1.16 -44.7 0 1 180.73 95.14
  L 178.13 98.79
  A 0.44 0.42 28.5 0 0 178.34 99.43
  Q 179.89 100.08 180.43 98.68
  Q 182.07 94.38 183.81 98.19
  Q 184.65 100.02 186.71 99.47
  A 0.35 0.33 62.9 0 0 186.87 98.93
  L 183.58 94.66
  A 0.71 0.68 -46.4 0 1 183.58 93.83
  Q 184.96 91.96 186.23 90.24
  Q 187.24 88.87 185.81 88.99
  Q 185.33 89.03 184.93 89.38
  Q 183.74 90.41 182.94 91.75
  A 0.54 0.49 -59.6 0 1 182.25 91.96"
/>
<path stroke="#808080" vector-effect="non-scaling-stroke" d="
  M 220.81 98.19
  Q 218.19 97.77 217.55 95.43
  A 0.73 0.71 82.4 0 1 218.24 94.50
  L 224.66 94.57
  A 0.59 0.58 -0.9 0 0 225.26 93.96
  Q 225.06 89.90 222.06 89.14
  Q 219.66 88.53 217.62 89.93
  Q 215.38 91.48 215.75 94.75
  Q 216.56 101.98 223.48 98.89
  Q 224.68 98.36 223.92 97.76
  A 0.96 0.73 -33.2 0 0 223.04 97.70
  Q 221.53 98.30 220.81 98.19"
/>
<path stroke="#808080" vector-effect="non-scaling-stroke" d="
  M 228.54 89.52
  Q 227.72 88.36 227.20 89.43
  Q 227.00 89.86 227.00 90.61
  Q 226.99 94.30 226.84 97.99
  Q 226.75 100.22 228.49 99.62
  A 0.73 0.66 81.8 0 0 228.95 98.94
  L 228.99 92.81
  A 2.07 2.02 85.5 0 1 230.68 90.79
  Q 233.26 90.37 233.58 92.99
  Q 233.94 95.96 233.62 98.93
  A 0.73 0.66 -76.6 0 0 234.02 99.65
  Q 235.89 100.43 235.43 98.86
  Q 235.00 97.40 235.14 95.90
  Q 235.98 86.90 229.27 89.74
  A 0.63 0.60 60.6 0 1 228.54 89.52"
/>
<path stroke="#808080" vector-effect="non-scaling-stroke" d="
  M 239.78 94.92
  Q 243.06 93.94 246.12 94.66
  A 0.76 0.76 -83.9 0 0 247.06 93.90
  Q 246.97 88.73 241.75 89.00
  Q 239.36 89.12 238.19 91.19
  Q 237.34 92.72 237.54 94.94
  Q 238.12 101.28 244.93 99.34
  Q 245.50 99.18 245.81 98.79
  Q 246.51 97.90 245.49 97.60
  A 1.68 0.97 -34.8 0 0 244.54 97.68
  Q 240.71 99.07 239.46 95.54
  A 0.48 0.48 -17.7 0 1 239.78 94.92"
/>
<path stroke="#808080" vector-effect="non-scaling-stroke" d="
  M 251.15 89.73
  Q 250.64 88.60 249.50 89.08
  A 0.82 0.73 79.8 0 0 249.05 89.81
  L 249.05 98.93
  A 0.81 0.71 -81.4 0 0 249.52 99.67
  Q 250.12 99.89 250.63 99.57
  A 0.99 0.70 77.3 0 0 250.97 98.75
  Q 250.81 95.84 251.31 92.99
  Q 251.51 91.80 252.22 91.28
  Q 253.09 90.65 254.25 90.70
  A 0.82 0.68 11.2 0 0 254.99 90.30
  Q 255.85 88.47 253.00 89.00
  Q 252.69 89.06 251.70 89.86
  A 0.35 0.35 58.2 0 1 251.15 89.73"
/>
<path stroke="#808080" vector-effect="non-scaling-stroke" d="
  M 262.51 92.52
  Q 262.76 93.05 262.18 92.94
  Q 259.60 92.44 257.70 94.21
  Q 254.69 97.01 257.99 99.24
  Q 259.96 100.57 261.36 99.44
  A 1.39 1.36 -54.1 0 1 262.72 99.21
  Q 265.93 100.41 264.81 97.77
  Q 264.16 96.22 264.26 94.55
  Q 264.74 87.15 257.92 89.51
  A 1.40 1.23 1.5 0 0 257.19 90.12
  Q 256.49 91.49 257.65 91.32
  Q 257.93 91.28 258.68 90.93
  Q 261.21 89.75 262.51 92.52"
/>
<path stroke="#808080" vector-effect="non-scaling-stroke" d="
  M 275.77 91.05
  Q 276.42 95.24 276.00 97.25
  Q 275.40 100.15 277.46 99.60
  A 0.70 0.67 82.3 0 0 277.95 98.93
  L 277.95 89.56
  A 0.53 0.52 -89.4 0 0 277.44 89.03
  L 275.75 88.99
  A 1.34 1.25 23.2 0 0 274.86 89.31
  Q 273.91 90.18 275.20 90.48
  A 0.75 0.70 2.3 0 1 275.77 91.05"
/>
<path stroke="#808080" vector-effect="non-scaling-stroke" d="
  M 284.8621 99.9995
  A 5.58 4.79 90.8 0 0 289.7295 94.4869
  A 5.58 4.79 90.8 0 0 285.0179 88.8405
  A 5.58 4.79 90.8 0 0 280.1505 94.3531
  A 5.58 4.79 90.8 0 0 284.8621 99.9995"
/>
<path stroke="#808080" vector-effect="non-scaling-stroke" d="
  M 293.42 89.62
  Q 292.81 89.05 292.05 89.17
  A 0.66 0.53 86.0 0 0 291.60 89.82
  L 291.71 98.81
  A 1.00 0.79 -77.7 0 0 292.10 99.61
  Q 292.98 100.14 293.29 99.40
  Q 293.45 99.02 293.35 98.21
  Q 292.96 95.17 293.58 92.17
  A 1.15 1.14 -9.9 0 1 294.11 91.42
  Q 297.93 89.17 297.98 94.00
  Q 298.00 96.00 297.87 97.99
  Q 297.73 100.05 299.34 99.70
  A 0.74 0.66 88.2 0 0 299.87 99.07
  Q 300.56 93.35 299.75 91.50
  Q 297.96 87.37 294.16 89.73
  A 0.65 0.58 50.2 0 1 293.42 89.62"
/>
<path stroke="#808080" vector-effect="non-scaling-stroke" d="
  M 90.49 36.17
  A 25.31 25.31 0.0 0 0 65.18 10.86
  A 25.31 25.31 0.0 0 0 39.87 36.17
  A 25.31 25.31 0.0 0 0 65.18 61.48
  A 25.31 25.31 0.0 0 0 90.49 36.17"
/>
<path stroke="#808080" vector-effect="non-scaling-stroke" d="
  M 27.78 43.08
  Q 25.78 46.00 23.67 43.12
  Q 23.60 43.03 23.12 41.78
  Q 22.71 40.69 20.97 41.06
  A 1.07 1.06 82.4 0 0 20.13 42.16
  Q 20.29 44.79 21.58 45.92
  Q 26.31 50.04 30.31 45.31
  Q 32.73 42.46 31.06 41.44
  Q 29.05 40.20 28.40 41.70
  Q 27.82 43.04 27.78 43.08"
/>
<path stroke="#808080" vector-effect="non-scaling-stroke" d="
  M 75.18 22.65
  A 0.69 0.68 39.6 0 0 76.05 22.57
  L 78.90 19.73
  A 0.72 0.72 -50.9 0 0 78.79 18.63
  Q 64.88 9.33 51.57 18.63
  A 1.01 1.00 -33.1 0 0 51.28 19.96
  Q 53.34 23.42 55.17 22.05
  Q 56.36 21.17 56.46 21.12
  Q 65.88 16.26 75.18 22.65"
/>
<path stroke="#808080" vector-effect="non-scaling-stroke" d="
  M 80.77 38.91
  Q 80.10 42.71 77.66 45.86
  A 0.76 0.76 41.6 0 0 77.72 46.85
  L 81.00 50.12
  A 1.06 1.06 -50.5 0 0 82.63 49.96
  Q 92.18 35.83 82.30 22.16
  A 0.62 0.59 58.4 0 0 81.54 21.96
  Q 80.05 22.74 78.50 24.90
  A 1.30 1.29 -43.1 0 0 78.45 26.33
  Q 81.98 32.10 80.77 38.91"
/>
<path stroke="#808080" vector-effect="non-scaling-stroke" d="
  M 51.04 24.72
  L 48.48 22.32
  A 0.52 0.44 -52.0 0 0 47.77 22.47
  Q 38.59 35.32 47.50 49.63
  A 0.81 0.78 51.8 0 0 48.74 49.80
  L 51.67 46.88
  A 0.64 0.56 50.3 0 0 51.69 46.09
  Q 44.88 36.81 51.11 25.57
  A 0.75 0.61 -55.5 0 0 51.04 24.72"
/>
<path stroke="#808080" vector-effect="non-scaling-stroke" d="
  M 59.89 28.11
  Q 64.04 26.37 69.40 28.23
  A 1.20 1.10 31.2 0 0 70.59 27.99
  L 72.87 25.70
  A 0.47 0.44 39.5 0 0 72.78 25.01
  Q 65.23 19.64 56.71 24.72
  A 0.53 0.45 -36.6 0 0 56.54 25.47
  L 59.03 28.02
  A 0.87 0.61 -29.4 0 0 59.89 28.11"
/>
<path stroke="#808080" vector-effect="non-scaling-stroke" d="
  M 53.57 27.98
  Q 48.69 35.73 53.73 43.44
  A 0.82 0.78 51.1 0 0 54.96 43.60
  L 57.36 41.20
  A 0.71 0.63 53.5 0 0 57.43 40.39
  Q 55.41 36.92 56.37 32.99
  Q 56.45 32.67 56.83 32.14
  Q 57.11 31.75 57.14 31.31
  Q 57.17 30.80 56.62 30.25
  Q 55.59 29.21 54.27 27.90
  A 0.45 0.45 -51.5 0 0 53.57 27.98"
/>
<path stroke="#808080" vector-effect="non-scaling-stroke" d="
  M 72.22 38.83
  Q 71.28 41.54 74.46 43.42
  A 0.99 0.99 -59.9 0 0 75.84 43.05
  Q 79.97 35.51 75.86 28.18
  A 0.51 0.50 52.6 0 0 75.06 28.07
  L 72.44 30.69
  A 0.94 0.93 58.6 0 0 72.21 31.66
  Q 72.99 33.93 73.03 35.85
  Q 73.05 36.44 72.22 38.83"
/>
<path stroke="#808080" vector-effect="non-scaling-stroke" d="
  M 69.89 35.61
  A 5.30 5.30 0.0 0 0 64.59 30.31
  A 5.30 5.30 0.0 0 0 59.29 35.61
  A 5.30 5.30 0.0 0 0 64.59 40.91
  A 5.30 5.30 0.0 0 0 69.89 35.61"
/>
<path stroke="#808080" vector-effect="non-scaling-stroke" d="
  M 57.28 46.98
  Q 65.16 50.90 72.15 46.76
  A 0.56 0.56 -37.9 0 0 72.26 45.88
  L 69.74 43.37
  A 0.96 0.95 58.1 0 0 68.76 43.14
  Q 64.28 44.74 60.71 43.21
  A 0.83 0.69 31.7 0 0 59.87 43.33
  L 57.11 46.06
  A 0.58 0.56 35.4 0 0 57.28 46.98"
/>
<path stroke="#808080" vector-effect="non-scaling-stroke" d="
  M 54.67 49.06
  A 0.59 0.58 -51.9 0 0 53.97 49.15
  L 51.26 51.86
  A 1.13 1.13 39.5 0 0 51.43 53.60
  Q 65.41 63.02 78.85 53.54
  A 0.50 0.43 -39.4 0 0 78.97 52.84
  L 75.42 49.19
  A 0.80 0.70 -36.1 0 0 74.50 49.11
  Q 64.61 54.86 54.67 49.06"
/>
<path stroke="#808080" vector-effect="non-scaling-stroke" d="
  M 264.19 41.19
  Q 259.82 46.57 260.10 54.15
  Q 260.22 57.39 261.40 58.97
  Q 263.38 61.62 267.43 59.42
  Q 270.57 57.73 272.19 55.44
  Q 277.22 48.33 277.90 39.07
  A 0.72 0.70 -76.2 0 0 277.48 38.36
  Q 269.32 34.86 264.19 41.19"
/>
<path stroke="#808080" vector-effect="non-scaling-stroke" d="
  M 131.81 28.74
  Q 128.72 27.84 124.54 28.47
  A 1.24 1.22 0.9 0 0 123.51 29.45
  L 121.32 40.72
  A 0.75 0.75 8.1 0 0 121.99 41.60
  Q 130.52 42.44 134.50 37.00
  Q 136.40 34.40 135.35 31.76
  Q 134.45 29.52 131.81 28.74"
/>
<path stroke="#808080" vector-effect="non-scaling-stroke" d="
  M 308.68 29.99
  L 298.47 49.80
  A 0.34 0.33 -75.4 0 0 298.75 50.29
  L 310.95 50.46
  A 0.47 0.44 86.5 0 0 311.38 49.94
  L 309.14 30.09
  Q 309.05 29.27 308.68 29.99"
/>
<path stroke="#808080" vector-effect="non-scaling-stroke" d="
  M 170.35 38.39
  Q 164.97 36.36 160.73 38.25
  Q 156.99 39.91 154.82 44.71
  Q 152.91 48.93 152.88 53.67
  Q 152.86 56.97 153.90 58.64
  Q 155.70 61.53 160.01 59.46
  Q 162.97 58.03 164.19 56.44
  Q 170.21 48.54 170.67 38.88
  A 0.50 0.49 12.1 0 0 170.35 38.39"
/>
<path stroke="#808080" vector-effect="non-scaling-stroke" d="
  M 204.04 37.80
  Q 200.46 36.89 197.43 39.94
  Q 189.69 47.75 188.97 58.81
  A 0.70 0.69 -76.8 0 0 189.40 59.51
  Q 194.62 61.68 198.94 59.65
  Q 202.81 57.84 205.02 52.93
  Q 207.61 47.17 206.50 40.48
  Q 206.14 38.34 204.04 37.80"
/>
<path stroke="#808080" vector-effect="non-scaling-stroke" d="
  M 84.06 97.69
  Q 81.27 96.42 78.45 95.20
  A 1.45 1.38 -39.4 0 0 77.51 95.13
  Q 76.32 95.46 75.15 95.78
  Q 72.63 96.48 72.55 94.32
  A 0.93 0.89 -18.8 0 1 72.96 93.53
  Q 74.54 92.47 76.43 92.23
  A 0.60 0.53 -3.6 0 0 76.96 91.70
  L 76.95 84.30
  A 0.37 0.35 -9.5 0 0 76.47 83.97
  L 36.93 97.61
  A 1.19 1.00 -11.3 0 0 36.13 98.61
  L 36.14 102.52
  A 0.47 0.39 -9.0 0 0 36.73 102.87
  Q 44.24 100.90 51.74 98.89
  Q 51.81 98.87 52.74 98.55
  Q 54.40 97.98 55.07 99.34
  A 1.59 1.59 68.9 0 1 54.08 101.58
  Q 50.44 102.62 47.26 103.20
  Q 46.96 103.26 46.76 103.40
  Q 46.09 103.90 47.50 103.89
  Q 64.52 103.75 81.54 103.75
  Q 81.61 103.75 83.45 103.91
  Q 85.78 104.11 85.15 101.73
  A 1.62 1.56 47.9 0 1 85.18 100.79
  Q 85.94 98.54 84.06 97.69"
/>
<path stroke="#808080" vector-effect="non-scaling-stroke" d="
  M 96.82 103.19
  L 88.73 99.91
  A 0.45 0.37 12.5 0 0 88.11 100.22
  L 88.20 103.24
  A 0.61 0.53 -1.0 0 0 88.81 103.75
  L 96.70 103.75
  Q 98.20 103.75 96.82 103.19"
/>
<path stroke="#808080" vector-effect="non-scaling-stroke" d="
  M 68.74 98.73
  Q 70.12 94.77 67.25 92.52
  Q 65.75 91.34 63.85 91.41
  Q 61.70 91.49 60.33 92.90
  Q 58.53 94.75 58.97 97.50
  Q 59.36 100.02 61.72 101.12
  Q 63.06 101.75 65.89 101.76
  Q 73.42 101.78 80.94 101.69
  A 1.41 0.92 14.7 0 0 81.83 101.39
  Q 82.46 100.77 82.02 99.92
  A 0.93 0.70 -9.4 0 0 81.26 99.52
  L 69.06 99.23
  A 0.38 0.36 -79.3 0 1 68.74 98.73"
/>
<path stroke="#808080" vector-effect="non-scaling-stroke" d="
  M 173.57 91.18
  Q 171.16 89.99 169.56 92.38
  Q 169.14 93.00 169.89 93.00
  Q 171.64 93.00 173.14 93.00
  Q 173.89 93.00 174.29 92.70
  Q 175.24 92.01 173.57 91.18"
/>
<path stroke="#808080" vector-effect="non-scaling-stroke" d="
  M 221.85 91.09
  Q 219.42 90.12 218.14 92.04
  Q 217.50 93.00 218.63 92.99
  L 222.44 92.96
  A 0.51 0.46 -2.6 0 0 222.95 92.45
  Q 222.87 91.50 221.85 91.09"
/>
<path stroke="#808080" vector-effect="non-scaling-stroke" d="
  M 243.81 91.19
  Q 241.55 89.44 240.06 91.81
  Q 239.08 93.38 240.27 93.15
  Q 241.06 92.99 241.88 92.99
  Q 246.18 93.02 243.81 91.19"
/>
<path stroke="#808080" vector-effect="non-scaling-stroke" d="
  M 262.4522 94.9176
  A 2.43 1.60 -34.1 0 0 259.5430 94.9551
  A 2.43 1.60 -34.1 0 0 258.4278 97.6424
  A 2.43 1.60 -34.1 0 0 261.3370 97.6049
  A 2.43 1.60 -34.1 0 0 262.4522 94.9176"
/>
<path stroke="#808080" vector-effect="non-scaling-stroke" d="
  M 284.5799 98.1938
  A 3.79 2.76 95.3 0 0 287.6782 94.6749
  A 3.79 2.76 95.3 0 0 285.2801 90.6462
  A 3.79 2.76 95.3 0 0 282.1818 94.1651
  A 3.79 2.76 95.3 0 0 284.5799 98.1938"
/>
<path stroke="#808080" vector-effect="non-scaling-stroke" d="
  M 66.81 96.52
  A 2.80 2.80 0.0 0 0 64.01 93.72
  A 2.80 2.80 0.0 0 0 61.21 96.52
  A 2.80 2.80 0.0 0 0 64.01 99.32
  A 2.80 2.80 0.0 0 0 66.81 96.52"
/>
</g>
<path fill="#ffffff" d="
  M 0.00 0.00
  L 45.06 0.00
  Q 27.78 3.03 17.82 17.32
  Q 12.32 25.20 11.39 34.68
  Q 11.27 35.81 11.35 38.31
  Q 11.43 41.08 10.94 41.94
  Q 6.58 49.48 0.00 55.19
  L 0.00 0.00
  Z"
/>
<path fill="#000000" d="
  M 45.06 0.00
  L 64.06 0.00
  Q 79.91 2.51 91.36 13.64
  Q 99.86 21.91 103.04 33.35
  Q 105.22 41.20 103.81 48.56
  Q 100.25 67.09 83.31 75.81
  Q 80.23 77.40 75.55 78.89
  Q 68.65 81.09 67.63 81.44
  Q 37.80 91.90 23.69 96.19
  Q 20.26 97.23 16.68 96.08
  Q 13.05 94.92 11.39 92.08
  Q 9.02 88.05 11.06 82.38
  Q 11.85 80.18 9.92 78.87
  Q 6.04 76.23 10.16 73.55
  Q 11.02 72.98 10.05 72.63
  Q 5.45 70.98 7.27 67.94
  Q 9.30 64.59 5.45 63.74
  Q 2.05 62.98 0.00 60.19
  L 0.00 55.19
  Q 6.58 49.48 10.94 41.94
  Q 11.43 41.08 11.35 38.31
  Q 11.27 35.81 11.39 34.68
  Q 12.32 25.20 17.82 17.32
  Q 27.78 3.03 45.06 0.00
  Z
  M 20.83 70.79
  Q 21.36 73.00 18.81 73.31
  Q 17.36 73.49 12.94 75.77
  A 0.47 0.47 -28.9 0 0 12.75 76.42
  Q 13.51 77.71 14.01 79.11
  Q 14.50 80.46 14.10 82.42
  Q 13.61 84.80 13.63 87.22
  Q 13.64 89.99 14.94 91.44
  Q 16.59 93.29 19.50 93.25
  Q 22.87 93.21 26.38 91.93
  Q 28.53 91.16 28.65 91.12
  Q 51.38 83.53 74.00 75.62
  Q 83.16 72.42 87.26 69.46
  Q 97.56 62.02 100.18 49.33
  Q 101.55 42.75 100.40 36.64
  Q 99.21 30.25 95.63 24.60
  Q 84.86 7.64 65.10 3.52
  Q 53.16 1.04 41.75 4.25
  Q 21.40 9.98 15.44 30.44
  Q 14.52 33.58 14.65 38.77
  Q 14.71 41.21 13.82 43.03
  Q 10.12 50.56 3.34 56.47
  Q 1.62 57.97 3.52 59.24
  Q 4.34 59.79 5.48 60.32
  Q 5.58 60.36 7.58 61.00
  Q 9.92 61.76 11.09 64.08
  Q 11.89 65.68 10.71 67.55
  A 1.29 1.26 -70.8 0 0 11.64 69.52
  L 20.18 70.28
  A 0.76 0.65 -2.8 0 1 20.83 70.79
  Z"
/>
<path fill="#ffffff" d="
  M 64.06 0.00
  L 362.00 0.00
  L 362.00 108.00
  L 0.00 108.00
  L 0.00 60.19
  Q 2.05 62.98 5.45 63.74
  Q 9.30 64.59 7.27 67.94
  Q 5.45 70.98 10.05 72.63
  Q 11.02 72.98 10.16 73.55
  Q 6.04 76.23 9.92 78.87
  Q 11.85 80.18 11.06 82.38
  Q 9.02 88.05 11.39 92.08
  Q 13.05 94.92 16.68 96.08
  Q 20.26 97.23 23.69 96.19
  Q 37.80 91.90 67.63 81.44
  Q 68.65 81.09 75.55 78.89
  Q 80.23 77.40 83.31 75.81
  Q 100.25 67.09 103.81 48.56
  Q 105.22 41.20 103.04 33.35
  Q 99.86 21.91 91.36 13.64
  Q 79.91 2.51 64.06 0.00
  Z
  M 241.67 23.96
  A 4.39 4.39 0.0 0 0 237.28 19.57
  A 4.39 4.39 0.0 0 0 232.89 23.96
  A 4.39 4.39 0.0 0 0 237.28 28.35
  A 4.39 4.39 0.0 0 0 241.67 23.96
  Z
  M 274.92 59.56
  L 274.61 64.18
  A 0.64 0.58 -81.6 0 0 275.04 64.82
  Q 277.25 65.34 279.46 64.81
  A 0.70 0.69 86.6 0 0 279.99 64.20
  Q 281.20 52.58 282.00 48.75
  Q 284.92 34.69 287.61 20.28
  A 0.44 0.42 -84.4 0 0 287.20 19.76
  L 282.55 19.79
  A 0.64 0.58 -84.0 0 0 281.97 20.31
  L 279.50 32.37
  A 0.92 0.92 12.3 0 1 278.39 33.08
  Q 267.72 30.76 260.92 36.99
  Q 257.59 40.04 255.86 44.87
  Q 254.23 49.43 254.25 54.33
  Q 254.28 59.39 256.17 62.22
  Q 258.89 66.30 264.75 65.50
  Q 270.50 64.72 274.64 59.45
  Q 274.95 59.05 274.92 59.56
  Z
  M 132.03 44.92
  Q 140.34 42.24 141.75 34.25
  Q 142.82 28.14 138.62 25.36
  Q 136.16 23.74 130.56 23.37
  Q 125.29 23.03 119.50 23.30
  A 0.80 0.79 4.5 0 0 118.74 23.94
  L 110.59 64.45
  A 0.46 0.46 -84.3 0 0 111.04 65.00
  L 115.83 65.00
  A 0.72 0.72 -84.7 0 0 116.54 64.41
  L 119.80 47.64
  A 1.29 1.28 -87.3 0 1 120.94 46.60
  Q 124.13 46.30 126.04 47.56
  Q 127.44 48.49 128.50 51.61
  Q 130.50 57.49 131.81 63.81
  A 1.36 1.09 82.5 0 0 132.94 64.90
  L 138.01 64.84
  A 0.47 0.40 81.1 0 0 138.37 64.26
  Q 136.39 56.60 134.01 49.07
  Q 133.68 48.05 133.08 47.19
  Q 132.48 46.32 131.86 45.47
  A 0.36 0.35 62.8 0 1 132.03 44.92
  Z
  M 312.25 56.55
  L 313.12 64.13
  A 0.93 0.90 86.8 0 0 314.02 64.96
  L 318.94 64.96
  A 0.48 0.45 86.6 0 0 319.38 64.43
  L 314.25 24.06
  A 0.66 0.56 86.4 0 0 313.69 23.48
  L 306.69 23.37
  A 0.91 0.73 -73.2 0 0 305.96 23.87
  L 284.32 64.38
  A 0.40 0.38 -75.5 0 0 284.64 64.97
  L 289.82 64.87
  A 0.99 0.80 -72.2 0 0 290.56 64.38
  L 294.94 56.62
  A 0.90 0.84 -74.0 0 1 295.69 56.17
  L 311.69 56.05
  A 0.57 0.55 86.0 0 1 312.25 56.55
  Z
  M 341.66 59.44
  L 347.71 28.80
  A 0.61 0.61 -84.2 0 1 348.31 28.31
  L 356.93 28.19
  A 0.62 0.58 4.3 0 0 357.54 27.70
  L 358.25 23.76
  A 0.44 0.43 4.9 0 0 357.81 23.25
  L 334.06 23.31
  A 0.74 0.58 4.7 0 0 333.36 23.77
  L 332.56 27.69
  A 0.50 0.43 4.7 0 0 333.07 28.20
  L 341.33 28.25
  A 0.43 0.42 5.5 0 1 341.75 28.75
  L 335.62 59.40
  A 0.75 0.74 -84.3 0 1 334.89 60.00
  L 326.43 60.00
  A 0.74 0.66 -83.6 0 0 325.77 60.59
  L 324.96 64.39
  A 0.51 0.46 -83.4 0 0 325.40 65.00
  L 349.45 64.94
  A 0.67 0.59 4.6 0 0 350.10 64.46
  L 350.82 60.51
  A 0.47 0.43 4.6 0 0 350.35 60.00
  L 342.06 59.95
  A 0.43 0.41 -84.2 0 1 341.66 59.44
  Z
  M 166.91 59.70
  Q 167.92 58.12 167.75 59.99
  L 167.36 64.44
  A 0.50 0.49 5.1 0 0 167.82 64.98
  Q 168.90 65.08 169.97 65.23
  Q 173.13 65.68 173.13 63.13
  Q 173.12 60.94 173.13 60.87
  Q 174.77 47.30 177.87 33.45
  Q 178.22 31.88 176.77 32.57
  Q 175.21 33.30 173.27 33.35
  Q 172.35 33.37 169.77 32.85
  Q 156.99 30.31 150.44 40.94
  Q 145.79 48.48 147.40 57.76
  Q 147.98 61.11 149.45 62.89
  Q 151.48 65.36 154.75 65.50
  Q 162.96 65.86 166.91 59.70
  Z
  M 192.03 38.06
  L 192.51 33.43
  A 0.57 0.48 -86.3 0 0 192.04 32.80
  L 187.69 32.86
  A 0.67 0.58 -85.9 0 0 187.12 33.43
  Q 186.49 37.86 185.98 42.30
  Q 185.44 46.99 184.58 51.12
  Q 181.89 64.01 179.36 77.49
  A 0.43 0.43 -84.9 0 0 179.78 78.00
  L 184.54 78.00
  A 0.63 0.62 -84.3 0 0 185.15 77.49
  L 187.55 65.27
  A 0.64 0.64 11.1 0 1 188.31 64.76
  Q 203.48 67.80 209.80 55.92
  Q 211.69 52.37 212.33 48.21
  Q 212.95 44.16 212.44 40.01
  Q 212.03 36.75 209.95 34.69
  Q 208.09 32.86 204.93 32.50
  Q 197.73 31.67 192.91 38.33
  Q 191.85 39.79 192.03 38.06
  Z
  M 232.66 32.60
  Q 227.29 31.72 221.63 34.60
  A 1.15 1.14 -13.6 0 0 221.00 35.62
  L 221.00 39.07
  A 0.60 0.59 76.2 0 0 221.87 39.60
  Q 224.76 38.08 227.60 37.49
  Q 232.85 36.38 231.84 41.72
  Q 230.65 48.05 229.59 54.40
  Q 228.74 59.48 229.50 61.60
  Q 231.00 65.82 237.00 65.50
  Q 241.92 65.24 245.64 63.07
  A 0.99 0.82 -17.4 0 0 246.13 62.32
  L 246.23 58.30
  A 0.34 0.31 -14.1 0 0 245.74 58.04
  Q 242.80 59.49 239.66 60.35
  Q 237.56 60.92 236.37 60.26
  Q 234.58 59.26 235.09 56.52
  Q 236.61 48.27 238.00 40.00
  Q 238.50 37.04 236.85 34.88
  Q 235.47 33.06 232.66 32.60
  Z
  M 105.82 103.93
  Q 93.55 98.14 80.56 92.82
  A 0.90 0.89 11.3 0 1 80.00 91.99
  L 80.00 81.73
  Q 80.00 79.50 77.88 80.21
  Q 57.73 86.95 37.09 94.20
  Q 37.05 94.22 35.37 94.67
  Q 32.73 95.37 32.90 98.21
  Q 33.00 99.76 33.00 99.80
  Q 33.00 102.50 33.00 105.01
  A 0.99 0.99 0.0 0 0 33.99 106.00
  Q 69.65 106.00 105.05 106.00
  Q 105.87 106.00 106.40 105.77
  Q 108.14 105.03 105.82 103.93
  Z
  M 206.46 97.14
  Q 202.46 94.34 205.06 89.31
  Q 206.83 85.89 210.36 87.43
  Q 211.19 87.80 211.71 87.70
  Q 212.85 87.48 212.58 86.29
  A 0.92 0.81 4.4 0 0 211.97 85.66
  Q 205.81 83.82 203.30 88.09
  Q 201.33 91.43 202.67 95.57
  Q 204.74 101.98 212.72 98.88
  A 0.77 0.71 -11.4 0 0 213.21 98.20
  L 213.23 92.77
  A 0.79 0.76 -0.4 0 0 212.42 92.00
  Q 207.39 92.10 210.88 94.19
  A 1.16 0.99 13.4 0 1 211.41 94.92
  Q 211.88 97.88 209.37 98.05
  Q 207.89 98.15 206.46 97.14
  Z
  M 157.13 91.27
  Q 157.10 89.50 158.09 90.92
  L 163.62 98.90
  Q 165.25 101.25 165.25 98.41
  L 165.25 86.25
  A 0.76 0.66 -82.2 0 0 164.79 85.55
  Q 164.18 85.34 163.55 85.44
  A 0.66 0.59 86.4 0 0 163.05 86.07
  L 162.95 93.46
  Q 162.93 94.95 162.04 93.72
  L 156.31 85.78
  Q 155.00 83.96 155.00 86.23
  Q 155.00 91.56 155.00 96.86
  Q 155.00 96.96 154.91 98.14
  Q 154.76 100.17 156.79 99.44
  A 0.72 0.72 -10.9 0 0 157.26 98.75
  L 157.13 91.27
  Z
  M 278.1695 85.8182
  A 1.20 1.13 -29.0 0 0 276.5722 85.4117
  A 1.20 1.13 -29.0 0 0 276.0705 86.9818
  A 1.20 1.13 -29.0 0 0 277.6678 87.3883
  A 1.20 1.13 -29.0 0 0 278.1695 85.8182
  Z
  M 189.43 91.32
  L 189.75 98.00
  Q 189.85 100.04 193.75 99.75
  Q 195.04 99.65 194.83 98.54
  A 0.65 0.54 -5.9 0 0 194.19 98.11
  Q 192.93 98.18 191.95 97.50
  A 1.11 0.89 21.1 0 1 191.48 96.69
  L 191.48 91.31
  A 0.80 0.74 -10.7 0 1 192.01 90.60
  Q 192.47 90.42 192.98 90.44
  Q 193.75 90.46 193.99 90.32
  Q 194.48 90.03 194.24 89.43
  A 0.69 0.56 -14.7 0 0 193.51 89.10
  Q 190.78 89.57 191.35 87.24
  A 0.62 0.50 -73.8 0 0 191.06 86.54
  Q 190.41 86.32 189.87 86.67
  A 0.94 0.62 74.1 0 0 189.61 87.49
  Q 189.73 88.42 189.11 88.83
  Q 188.49 89.24 188.46 89.27
  Q 187.36 90.37 188.95 90.73
  A 0.63 0.61 -85.3 0 1 189.43 91.32
  Z
  M 270.12 88.45
  Q 270.37 85.45 268.39 86.93
  A 1.42 0.88 86.0 0 0 267.96 87.75
  Q 267.86 88.38 267.46 88.80
  Q 266.68 89.61 266.64 89.76
  Q 266.47 90.43 267.33 90.78
  A 0.78 0.67 13.0 0 1 267.81 91.43
  Q 267.81 95.06 268.00 96.50
  Q 268.53 100.51 272.57 99.62
  Q 273.94 99.33 273.27 98.43
  A 1.07 0.76 -14.5 0 0 272.43 98.11
  Q 269.60 98.28 269.83 95.24
  Q 270.00 93.13 270.00 91.46
  A 1.03 1.02 -84.5 0 1 271.22 90.45
  Q 272.49 90.69 272.67 90.05
  A 0.78 0.60 25.1 0 0 272.27 89.28
  Q 271.49 88.84 270.55 88.88
  A 0.40 0.40 0.6 0 1 270.12 88.45
  Z
  M 171.56 97.94
  Q 169.12 97.46 169.36 95.18
  A 0.62 0.59 -87.2 0 1 169.94 94.63
  L 176.00 94.54
  A 0.83 0.78 -0.0 0 0 176.81 93.78
  Q 176.89 90.59 174.58 89.51
  Q 172.70 88.64 170.40 89.41
  Q 167.51 90.39 167.14 93.44
  Q 166.83 96.00 168.21 97.95
  Q 170.17 100.73 174.28 99.62
  Q 176.45 99.03 175.36 97.84
  A 0.83 0.69 -28.5 0 0 174.53 97.68
  Q 172.97 98.21 171.56 97.94
  Z
  M 182.25 91.96
  Q 180.96 91.20 180.36 89.78
  A 1.17 0.97 83.7 0 0 179.71 89.15
  Q 176.91 88.28 178.58 90.42
  Q 179.80 91.99 180.85 93.75
  A 1.36 1.16 -44.7 0 1 180.73 95.14
  L 178.13 98.79
  A 0.44 0.42 28.5 0 0 178.34 99.43
  Q 179.89 100.08 180.43 98.68
  Q 182.07 94.38 183.81 98.19
  Q 184.65 100.02 186.71 99.47
  A 0.35 0.33 62.9 0 0 186.87 98.93
  L 183.58 94.66
  A 0.71 0.68 -46.4 0 1 183.58 93.83
  Q 184.96 91.96 186.23 90.24
  Q 187.24 88.87 185.81 88.99
  Q 185.33 89.03 184.93 89.38
  Q 183.74 90.41 182.94 91.75
  A 0.54 0.49 -59.6 0 1 182.25 91.96
  Z
  M 220.81 98.19
  Q 218.19 97.77 217.55 95.43
  A 0.73 0.71 82.4 0 1 218.24 94.50
  L 224.66 94.57
  A 0.59 0.58 -0.9 0 0 225.26 93.96
  Q 225.06 89.90 222.06 89.14
  Q 219.66 88.53 217.62 89.93
  Q 215.38 91.48 215.75 94.75
  Q 216.56 101.98 223.48 98.89
  Q 224.68 98.36 223.92 97.76
  A 0.96 0.73 -33.2 0 0 223.04 97.70
  Q 221.53 98.30 220.81 98.19
  Z
  M 228.54 89.52
  Q 227.72 88.36 227.20 89.43
  Q 227.00 89.86 227.00 90.61
  Q 226.99 94.30 226.84 97.99
  Q 226.75 100.22 228.49 99.62
  A 0.73 0.66 81.8 0 0 228.95 98.94
  L 228.99 92.81
  A 2.07 2.02 85.5 0 1 230.68 90.79
  Q 233.26 90.37 233.58 92.99
  Q 233.94 95.96 233.62 98.93
  A 0.73 0.66 -76.6 0 0 234.02 99.65
  Q 235.89 100.43 235.43 98.86
  Q 235.00 97.40 235.14 95.90
  Q 235.98 86.90 229.27 89.74
  A 0.63 0.60 60.6 0 1 228.54 89.52
  Z
  M 239.78 94.92
  Q 243.06 93.94 246.12 94.66
  A 0.76 0.76 -83.9 0 0 247.06 93.90
  Q 246.97 88.73 241.75 89.00
  Q 239.36 89.12 238.19 91.19
  Q 237.34 92.72 237.54 94.94
  Q 238.12 101.28 244.93 99.34
  Q 245.50 99.18 245.81 98.79
  Q 246.51 97.90 245.49 97.60
  A 1.68 0.97 -34.8 0 0 244.54 97.68
  Q 240.71 99.07 239.46 95.54
  A 0.48 0.48 -17.7 0 1 239.78 94.92
  Z
  M 251.15 89.73
  Q 250.64 88.60 249.50 89.08
  A 0.82 0.73 79.8 0 0 249.05 89.81
  L 249.05 98.93
  A 0.81 0.71 -81.4 0 0 249.52 99.67
  Q 250.12 99.89 250.63 99.57
  A 0.99 0.70 77.3 0 0 250.97 98.75
  Q 250.81 95.84 251.31 92.99
  Q 251.51 91.80 252.22 91.28
  Q 253.09 90.65 254.25 90.70
  A 0.82 0.68 11.2 0 0 254.99 90.30
  Q 255.85 88.47 253.00 89.00
  Q 252.69 89.06 251.70 89.86
  A 0.35 0.35 58.2 0 1 251.15 89.73
  Z
  M 262.51 92.52
  Q 262.76 93.05 262.18 92.94
  Q 259.60 92.44 257.70 94.21
  Q 254.69 97.01 257.99 99.24
  Q 259.96 100.57 261.36 99.44
  A 1.39 1.36 -54.1 0 1 262.72 99.21
  Q 265.93 100.41 264.81 97.77
  Q 264.16 96.22 264.26 94.55
  Q 264.74 87.15 257.92 89.51
  A 1.40 1.23 1.5 0 0 257.19 90.12
  Q 256.49 91.49 257.65 91.32
  Q 257.93 91.28 258.68 90.93
  Q 261.21 89.75 262.51 92.52
  Z
  M 275.77 91.05
  Q 276.42 95.24 276.00 97.25
  Q 275.40 100.15 277.46 99.60
  A 0.70 0.67 82.3 0 0 277.95 98.93
  L 277.95 89.56
  A 0.53 0.52 -89.4 0 0 277.44 89.03
  L 275.75 88.99
  A 1.34 1.25 23.2 0 0 274.86 89.31
  Q 273.91 90.18 275.20 90.48
  A 0.75 0.70 2.3 0 1 275.77 91.05
  Z
  M 284.8621 99.9995
  A 5.58 4.79 90.8 0 0 289.7295 94.4869
  A 5.58 4.79 90.8 0 0 285.0179 88.8405
  A 5.58 4.79 90.8 0 0 280.1505 94.3531
  A 5.58 4.79 90.8 0 0 284.8621 99.9995
  Z
  M 293.42 89.62
  Q 292.81 89.05 292.05 89.17
  A 0.66 0.53 86.0 0 0 291.60 89.82
  L 291.71 98.81
  A 1.00 0.79 -77.7 0 0 292.10 99.61
  Q 292.98 100.14 293.29 99.40
  Q 293.45 99.02 293.35 98.21
  Q 292.96 95.17 293.58 92.17
  A 1.15 1.14 -9.9 0 1 294.11 91.42
  Q 297.93 89.17 297.98 94.00
  Q 298.00 96.00 297.87 97.99
  Q 297.73 100.05 299.34 99.70
  A 0.74 0.66 88.2 0 0 299.87 99.07
  Q 300.56 93.35 299.75 91.50
  Q 297.96 87.37 294.16 89.73
  A 0.65 0.58 50.2 0 1 293.42 89.62
  Z"
/>
<path fill="#ffffff" d="
  M 20.18 70.28
  L 11.64 69.52
  A 1.29 1.26 -70.8 0 1 10.71 67.55
  Q 11.89 65.68 11.09 64.08
  Q 9.92 61.76 7.58 61.00
  Q 5.58 60.36 5.48 60.32
  Q 4.34 59.79 3.52 59.24
  Q 1.62 57.97 3.34 56.47
  Q 10.12 50.56 13.82 43.03
  Q 14.71 41.21 14.65 38.77
  Q 14.52 33.58 15.44 30.44
  Q 21.40 9.98 41.75 4.25
  Q 53.16 1.04 65.10 3.52
  Q 84.86 7.64 95.63 24.60
  Q 99.21 30.25 100.40 36.64
  Q 101.55 42.75 100.18 49.33
  Q 97.56 62.02 87.26 69.46
  Q 83.16 72.42 74.00 75.62
  Q 51.38 83.53 28.65 91.12
  Q 28.53 91.16 26.38 91.93
  Q 22.87 93.21 19.50 93.25
  Q 16.59 93.29 14.94 91.44
  Q 13.64 89.99 13.63 87.22
  Q 13.61 84.80 14.10 82.42
  Q 14.50 80.46 14.01 79.11
  Q 13.51 77.71 12.75 76.42
  A 0.47 0.47 -28.9 0 1 12.94 75.77
  Q 17.36 73.49 18.81 73.31
  Q 21.36 73.00 20.83 70.79
  A 0.76 0.65 -2.8 0 0 20.18 70.28
  Z
  M 90.49 36.17
  A 25.31 25.31 0.0 0 0 65.18 10.86
  A 25.31 25.31 0.0 0 0 39.87 36.17
  A 25.31 25.31 0.0 0 0 65.18 61.48
  A 25.31 25.31 0.0 0 0 90.49 36.17
  Z
  M 27.78 43.08
  Q 25.78 46.00 23.67 43.12
  Q 23.60 43.03 23.12 41.78
  Q 22.71 40.69 20.97 41.06
  A 1.07 1.06 82.4 0 0 20.13 42.16
  Q 20.29 44.79 21.58 45.92
  Q 26.31 50.04 30.31 45.31
  Q 32.73 42.46 31.06 41.44
  Q 29.05 40.20 28.40 41.70
  Q 27.82 43.04 27.78 43.08
  Z"
/>
<path fill="#000000" d="
  M 90.49 36.17
  A 25.31 25.31 0.0 0 1 65.18 61.48
  A 25.31 25.31 0.0 0 1 39.87 36.17
  A 25.31 25.31 0.0 0 1 65.18 10.86
  A 25.31 25.31 0.0 0 1 90.49 36.17
  Z
  M 75.18 22.65
  A 0.69 0.68 39.6 0 0 76.05 22.57
  L 78.90 19.73
  A 0.72 0.72 -50.9 0 0 78.79 18.63
  Q 64.88 9.33 51.57 18.63
  A 1.01 1.00 -33.1 0 0 51.28 19.96
  Q 53.34 23.42 55.17 22.05
  Q 56.36 21.17 56.46 21.12
  Q 65.88 16.26 75.18 22.65
  Z
  M 80.77 38.91
  Q 80.10 42.71 77.66 45.86
  A 0.76 0.76 41.6 0 0 77.72 46.85
  L 81.00 50.12
  A 1.06 1.06 -50.5 0 0 82.63 49.96
  Q 92.18 35.83 82.30 22.16
  A 0.62 0.59 58.4 0 0 81.54 21.96
  Q 80.05 22.74 78.50 24.90
  A 1.30 1.29 -43.1 0 0 78.45 26.33
  Q 81.98 32.10 80.77 38.91
  Z
  M 51.04 24.72
  L 48.48 22.32
  A 0.52 0.44 -52.0 0 0 47.77 22.47
  Q 38.59 35.32 47.50 49.63
  A 0.81 0.78 51.8 0 0 48.74 49.80
  L 51.67 46.88
  A 0.64 0.56 50.3 0 0 51.69 46.09
  Q 44.88 36.81 51.11 25.57
  A 0.75 0.61 -55.5 0 0 51.04 24.72
  Z
  M 59.89 28.11
  Q 64.04 26.37 69.40 28.23
  A 1.20 1.10 31.2 0 0 70.59 27.99
  L 72.87 25.70
  A 0.47 0.44 39.5 0 0 72.78 25.01
  Q 65.23 19.64 56.71 24.72
  A 0.53 0.45 -36.6 0 0 56.54 25.47
  L 59.03 28.02
  A 0.87 0.61 -29.4 0 0 59.89 28.11
  Z
  M 53.57 27.98
  Q 48.69 35.73 53.73 43.44
  A 0.82 0.78 51.1 0 0 54.96 43.60
  L 57.36 41.20
  A 0.71 0.63 53.5 0 0 57.43 40.39
  Q 55.41 36.92 56.37 32.99
  Q 56.45 32.67 56.83 32.14
  Q 57.11 31.75 57.14 31.31
  Q 57.17 30.80 56.62 30.25
  Q 55.59 29.21 54.27 27.90
  A 0.45 0.45 -51.5 0 0 53.57 27.98
  Z
  M 72.22 38.83
  Q 71.28 41.54 74.46 43.42
  A 0.99 0.99 -59.9 0 0 75.84 43.05
  Q 79.97 35.51 75.86 28.18
  A 0.51 0.50 52.6 0 0 75.06 28.07
  L 72.44 30.69
  A 0.94 0.93 58.6 0 0 72.21 31.66
  Q 72.99 33.93 73.03 35.85
  Q 73.05 36.44 72.22 38.83
  Z
  M 69.89 35.61
  A 5.30 5.30 0.0 0 0 64.59 30.31
  A 5.30 5.30 0.0 0 0 59.29 35.61
  A 5.30 5.30 0.0 0 0 64.59 40.91
  A 5.30 5.30 0.0 0 0 69.89 35.61
  Z
  M 57.28 46.98
  Q 65.16 50.90 72.15 46.76
  A 0.56 0.56 -37.9 0 0 72.26 45.88
  L 69.74 43.37
  A 0.96 0.95 58.1 0 0 68.76 43.14
  Q 64.28 44.74 60.71 43.21
  A 0.83 0.69 31.7 0 0 59.87 43.33
  L 57.11 46.06
  A 0.58 0.56 35.4 0 0 57.28 46.98
  Z
  M 54.67 49.06
  A 0.59 0.58 -51.9 0 0 53.97 49.15
  L 51.26 51.86
  A 1.13 1.13 39.5 0 0 51.43 53.60
  Q 65.41 63.02 78.85 53.54
  A 0.50 0.43 -39.4 0 0 78.97 52.84
  L 75.42 49.19
  A 0.80 0.70 -36.1 0 0 74.50 49.11
  Q 64.61 54.86 54.67 49.06
  Z"
/>
<path fill="#ffffff" d="
  M 75.18 22.65
  Q 65.88 16.26 56.46 21.12
  Q 56.36 21.17 55.17 22.05
  Q 53.34 23.42 51.28 19.96
  A 1.01 1.00 -33.1 0 1 51.57 18.63
  Q 64.88 9.33 78.79 18.63
  A 0.72 0.72 -50.9 0 1 78.90 19.73
  L 76.05 22.57
  A 0.69 0.68 39.6 0 1 75.18 22.65
  Z"
/>
<circle fill="#000000" cx="237.28" cy="23.96" r="4.39"/>
<path fill="#000000" d="
  M 274.64 59.45
  Q 270.50 64.72 264.75 65.50
  Q 258.89 66.30 256.17 62.22
  Q 254.28 59.39 254.25 54.33
  Q 254.23 49.43 255.86 44.87
  Q 257.59 40.04 260.92 36.99
  Q 267.72 30.76 278.39 33.08
  A 0.92 0.92 12.3 0 0 279.50 32.37
  L 281.97 20.31
  A 0.64 0.58 -84.0 0 1 282.55 19.79
  L 287.20 19.76
  A 0.44 0.42 -84.4 0 1 287.61 20.28
  Q 284.92 34.69 282.00 48.75
  Q 281.20 52.58 279.99 64.20
  A 0.70 0.69 86.6 0 1 279.46 64.81
  Q 277.25 65.34 275.04 64.82
  A 0.64 0.58 -81.6 0 1 274.61 64.18
  L 274.92 59.56
  Q 274.95 59.05 274.64 59.45
  Z
  M 264.19 41.19
  Q 259.82 46.57 260.10 54.15
  Q 260.22 57.39 261.40 58.97
  Q 263.38 61.62 267.43 59.42
  Q 270.57 57.73 272.19 55.44
  Q 277.22 48.33 277.90 39.07
  A 0.72 0.70 -76.2 0 0 277.48 38.36
  Q 269.32 34.86 264.19 41.19
  Z"
/>
<path fill="#ffffff" d="
  M 80.77 38.91
  Q 81.98 32.10 78.45 26.33
  A 1.30 1.29 -43.1 0 1 78.50 24.90
  Q 80.05 22.74 81.54 21.96
  A 0.62 0.59 58.4 0 1 82.30 22.16
  Q 92.18 35.83 82.63 49.96
  A 1.06 1.06 -50.5 0 1 81.00 50.12
  L 77.72 46.85
  A 0.76 0.76 41.6 0 1 77.66 45.86
  Q 80.10 42.71 80.77 38.91
  Z"
/>
<path fill="#ffffff" d="
  M 51.04 24.72
  A 0.75 0.61 -55.5 0 1 51.11 25.57
  Q 44.88 36.81 51.69 46.09
  A 0.64 0.56 50.3 0 1 51.67 46.88
  L 48.74 49.80
  A 0.81 0.78 51.8 0 1 47.50 49.63
  Q 38.59 35.32 47.77 22.47
  A 0.52 0.44 -52.0 0 1 48.48 22.32
  L 51.04 24.72
  Z"
/>
<path fill="#ffffff" d="
  M 59.03 28.02
  L 56.54 25.47
  A 0.53 0.45 -36.6 0 1 56.71 24.72
  Q 65.23 19.64 72.78 25.01
  A 0.47 0.44 39.5 0 1 72.87 25.70
  L 70.59 27.99
  A 1.20 1.10 31.2 0 1 69.40 28.23
  Q 64.04 26.37 59.89 28.11
  A 0.87 0.61 -29.4 0 1 59.03 28.02
  Z"
/>
<path fill="#000000" d="
  M 131.86 45.47
  Q 132.48 46.32 133.08 47.19
  Q 133.68 48.05 134.01 49.07
  Q 136.39 56.60 138.37 64.26
  A 0.47 0.40 81.1 0 1 138.01 64.84
  L 132.94 64.90
  A 1.36 1.09 82.5 0 1 131.81 63.81
  Q 130.50 57.49 128.50 51.61
  Q 127.44 48.49 126.04 47.56
  Q 124.13 46.30 120.94 46.60
  A 1.29 1.28 -87.3 0 0 119.80 47.64
  L 116.54 64.41
  A 0.72 0.72 -84.7 0 1 115.83 65.00
  L 111.04 65.00
  A 0.46 0.46 -84.3 0 1 110.59 64.45
  L 118.74 23.94
  A 0.80 0.79 4.5 0 1 119.50 23.30
  Q 125.29 23.03 130.56 23.37
  Q 136.16 23.74 138.62 25.36
  Q 142.82 28.14 141.75 34.25
  Q 140.34 42.24 132.03 44.92
  A 0.36 0.35 62.8 0 0 131.86 45.47
  Z
  M 131.81 28.74
  Q 128.72 27.84 124.54 28.47
  A 1.24 1.22 0.9 0 0 123.51 29.45
  L 121.32 40.72
  A 0.75 0.75 8.1 0 0 121.99 41.60
  Q 130.52 42.44 134.50 37.00
  Q 136.40 34.40 135.35 31.76
  Q 134.45 29.52 131.81 28.74
  Z"
/>
<path fill="#000000" d="
  M 311.69 56.05
  L 295.69 56.17
  A 0.90 0.84 -74.0 0 0 294.94 56.62
  L 290.56 64.38
  A 0.99 0.80 -72.2 0 1 289.82 64.87
  L 284.64 64.97
  A 0.40 0.38 -75.5 0 1 284.32 64.38
  L 305.96 23.87
  A 0.91 0.73 -73.2 0 1 306.69 23.37
  L 313.69 23.48
  A 0.66 0.56 86.4 0 1 314.25 24.06
  L 319.38 64.43
  A 0.48 0.45 86.6 0 1 318.94 64.96
  L 314.02 64.96
  A 0.93 0.90 86.8 0 1 313.12 64.13
  L 312.25 56.55
  A 0.57 0.55 86.0 0 0 311.69 56.05
  Z
  M 308.68 29.99
  L 298.47 49.80
  A 0.34 0.33 -75.4 0 0 298.75 50.29
  L 310.95 50.46
  A 0.47 0.44 86.5 0 0 311.38 49.94
  L 309.14 30.09
  Q 309.05 29.27 308.68 29.99
  Z"
/>
<path fill="#000000" d="
  M 342.06 59.95
  L 350.35 60.00
  A 0.47 0.43 4.6 0 1 350.82 60.51
  L 350.10 64.46
  A 0.67 0.59 4.6 0 1 349.45 64.94
  L 325.40 65.00
  A 0.51 0.46 -83.4 0 1 324.96 64.39
  L 325.77 60.59
  A 0.74 0.66 -83.6 0 1 326.43 60.00
  L 334.89 60.00
  A 0.75 0.74 -84.3 0 0 335.62 59.40
  L 341.75 28.75
  A 0.43 0.42 5.5 0 0 341.33 28.25
  L 333.07 28.20
  A 0.50 0.43 4.7 0 1 332.56 27.69
  L 333.36 23.77
  A 0.74 0.58 4.7 0 1 334.06 23.31
  L 357.81 23.25
  A 0.44 0.43 4.9 0 1 358.25 23.76
  L 357.54 27.70
  A 0.62 0.58 4.3 0 1 356.93 28.19
  L 348.31 28.31
  A 0.61 0.61 -84.2 0 0 347.71 28.80
  L 341.66 59.44
  A 0.43 0.41 -84.2 0 0 342.06 59.95
  Z"
/>
<path fill="#ffffff" d="
  M 53.57 27.98
  A 0.45 0.45 -51.5 0 1 54.27 27.90
  Q 55.59 29.21 56.62 30.25
  Q 57.17 30.80 57.14 31.31
  Q 57.11 31.75 56.83 32.14
  Q 56.45 32.67 56.37 32.99
  Q 55.41 36.92 57.43 40.39
  A 0.71 0.63 53.5 0 1 57.36 41.20
  L 54.96 43.60
  A 0.82 0.78 51.1 0 1 53.73 43.44
  Q 48.69 35.73 53.57 27.98
  Z"
/>
<path fill="#ffffff" d="
  M 73.03 35.85
  Q 72.99 33.93 72.21 31.66
  A 0.94 0.93 58.6 0 1 72.44 30.69
  L 75.06 28.07
  A 0.51 0.50 52.6 0 1 75.86 28.18
  Q 79.97 35.51 75.84 43.05
  A 0.99 0.99 -59.9 0 1 74.46 43.42
  Q 71.28 41.54 72.22 38.83
  Q 73.05 36.44 73.03 35.85
  Z"
/>
<path fill="#ffffff" d="
  M 135.35 31.76
  Q 136.40 34.40 134.50 37.00
  Q 130.52 42.44 121.99 41.60
  A 0.75 0.75 8.1 0 1 121.32 40.72
  L 123.51 29.45
  A 1.24 1.22 0.9 0 1 124.54 28.47
  Q 128.72 27.84 131.81 28.74
  Q 134.45 29.52 135.35 31.76
  Z"
/>
<path fill="#ffffff" d="
  M 308.68 29.99
  Q 309.05 29.27 309.14 30.09
  L 311.38 49.94
  A 0.47 0.44 86.5 0 1 310.95 50.46
  L 298.75 50.29
  A 0.34 0.33 -75.4 0 1 298.47 49.80
  L 308.68 29.99
  Z"
/>
<circle fill="#ffffff" cx="64.59" cy="35.61" r="5.30"/>
<path fill="#000000" d="
  M 166.91 59.70
  Q 162.96 65.86 154.75 65.50
  Q 151.48 65.36 149.45 62.89
  Q 147.98 61.11 147.40 57.76
  Q 145.79 48.48 150.44 40.94
  Q 156.99 30.31 169.77 32.85
  Q 172.35 33.37 173.27 33.35
  Q 175.21 33.30 176.77 32.57
  Q 178.22 31.88 177.87 33.45
  Q 174.77 47.30 173.13 60.87
  Q 173.12 60.94 173.13 63.13
  Q 173.13 65.68 169.97 65.23
  Q 168.90 65.08 167.82 64.98
  A 0.50 0.49 5.1 0 1 167.36 64.44
  L 167.75 59.99
  Q 167.92 58.12 166.91 59.70
  Z
  M 170.35 38.39
  Q 164.97 36.36 160.73 38.25
  Q 156.99 39.91 154.82 44.71
  Q 152.91 48.93 152.88 53.67
  Q 152.86 56.97 153.90 58.64
  Q 155.70 61.53 160.01 59.46
  Q 162.97 58.03 164.19 56.44
  Q 170.21 48.54 170.67 38.88
  A 0.50 0.49 12.1 0 0 170.35 38.39
  Z"
/>
<path fill="#000000" d="
  M 192.03 38.06
  Q 191.85 39.79 192.91 38.33
  Q 197.73 31.67 204.93 32.50
  Q 208.09 32.86 209.95 34.69
  Q 212.03 36.75 212.44 40.01
  Q 212.95 44.16 212.33 48.21
  Q 211.69 52.37 209.80 55.92
  Q 203.48 67.80 188.31 64.76
  A 0.64 0.64 11.1 0 0 187.55 65.27
  L 185.15 77.49
  A 0.63 0.62 -84.3 0 1 184.54 78.00
  L 179.78 78.00
  A 0.43 0.43 -84.9 0 1 179.36 77.49
  Q 181.89 64.01 184.58 51.12
  Q 185.44 46.99 185.98 42.30
  Q 186.49 37.86 187.12 33.43
  A 0.67 0.58 -85.9 0 1 187.69 32.86
  L 192.04 32.80
  A 0.57 0.48 -86.3 0 1 192.51 33.43
  L 192.03 38.06
  Z
  M 204.04 37.80
  Q 200.46 36.89 197.43 39.94
  Q 189.69 47.75 188.97 58.81
  A 0.70 0.69 -76.8 0 0 189.40 59.51
  Q 194.62 61.68 198.94 59.65
  Q 202.81 57.84 205.02 52.93
  Q 207.61 47.17 206.50 40.48
  Q 206.14 38.34 204.04 37.80
  Z"
/>
<path fill="#000000" d="
  M 236.85 34.88
  Q 238.50 37.04 238.00 40.00
  Q 236.61 48.27 235.09 56.52
  Q 234.58 59.26 236.37 60.26
  Q 237.56 60.92 239.66 60.35
  Q 242.80 59.49 245.74 58.04
  A 0.34 0.31 -14.1 0 1 246.23 58.30
  L 246.13 62.32
  A 0.99 0.82 -17.4 0 1 245.64 63.07
  Q 241.92 65.24 237.00 65.50
  Q 231.00 65.82 229.50 61.60
  Q 228.74 59.48 229.59 54.40
  Q 230.65 48.05 231.84 41.72
  Q 232.85 36.38 227.60 37.49
  Q 224.76 38.08 221.87 39.60
  A 0.60 0.59 76.2 0 1 221.00 39.07
  L 221.00 35.62
  A 1.15 1.14 -13.6 0 1 221.63 34.60
  Q 227.29 31.72 232.66 32.60
  Q 235.47 33.06 236.85 34.88
  Z"
/>
<path fill="#ffffff" d="
  M 170.35 38.39
  A 0.50 0.49 12.1 0 1 170.67 38.88
  Q 170.21 48.54 164.19 56.44
  Q 162.97 58.03 160.01 59.46
  Q 155.70 61.53 153.90 58.64
  Q 152.86 56.97 152.88 53.67
  Q 152.91 48.93 154.82 44.71
  Q 156.99 39.91 160.73 38.25
  Q 164.97 36.36 170.35 38.39
  Z"
/>
<path fill="#ffffff" d="
  M 264.19 41.19
  Q 269.32 34.86 277.48 38.36
  A 0.72 0.70 -76.2 0 1 277.90 39.07
  Q 277.22 48.33 272.19 55.44
  Q 270.57 57.73 267.43 59.42
  Q 263.38 61.62 261.40 58.97
  Q 260.22 57.39 260.10 54.15
  Q 259.82 46.57 264.19 41.19
  Z"
/>
<path fill="#ffffff" d="
  M 204.04 37.80
  Q 206.14 38.34 206.50 40.48
  Q 207.61 47.17 205.02 52.93
  Q 202.81 57.84 198.94 59.65
  Q 194.62 61.68 189.40 59.51
  A 0.70 0.69 -76.8 0 1 188.97 58.81
  Q 189.69 47.75 197.43 39.94
  Q 200.46 36.89 204.04 37.80
  Z"
/>
<path fill="#000000" d="
  M 28.40 41.70
  Q 29.05 40.20 31.06 41.44
  Q 32.73 42.46 30.31 45.31
  Q 26.31 50.04 21.58 45.92
  Q 20.29 44.79 20.13 42.16
  A 1.07 1.06 82.4 0 1 20.97 41.06
  Q 22.71 40.69 23.12 41.78
  Q 23.60 43.03 23.67 43.12
  Q 25.78 46.00 27.78 43.08
  Q 27.82 43.04 28.40 41.70
  Z"
/>
<path fill="#ffffff" d="
  M 57.28 46.98
  A 0.58 0.56 35.4 0 1 57.11 46.06
  L 59.87 43.33
  A 0.83 0.69 31.7 0 1 60.71 43.21
  Q 64.28 44.74 68.76 43.14
  A 0.96 0.95 58.1 0 1 69.74 43.37
  L 72.26 45.88
  A 0.56 0.56 -37.9 0 1 72.15 46.76
  Q 65.16 50.90 57.28 46.98
  Z"
/>
<path fill="#ffffff" d="
  M 54.67 49.06
  Q 64.61 54.86 74.50 49.11
  A 0.80 0.70 -36.1 0 1 75.42 49.19
  L 78.97 52.84
  A 0.50 0.43 -39.4 0 1 78.85 53.54
  Q 65.41 63.02 51.43 53.60
  A 1.13 1.13 39.5 0 1 51.26 51.86
  L 53.97 49.15
  A 0.59 0.58 -51.9 0 1 54.67 49.06
  Z"
/>
<path fill="#000000" d="
  M 105.82 103.93
  Q 108.14 105.03 106.40 105.77
  Q 105.87 106.00 105.05 106.00
  Q 69.65 106.00 33.99 106.00
  A 0.99 0.99 0.9 0 1 33.00 105.01
  Q 33.00 102.50 33.00 99.80
  Q 33.00 99.76 32.90 98.21
  Q 32.73 95.37 35.37 94.67
  Q 37.05 94.22 37.09 94.20
  Q 57.73 86.95 77.88 80.21
  Q 80.00 79.50 80.00 81.73
  L 80.00 91.99
  A 0.90 0.89 11.3 0 0 80.56 92.82
  Q 93.55 98.14 105.82 103.93
  Z
  M 84.06 97.69
  Q 81.27 96.42 78.45 95.20
  A 1.45 1.38 -39.4 0 0 77.51 95.13
  Q 76.32 95.46 75.15 95.78
  Q 72.63 96.48 72.55 94.32
  A 0.93 0.89 -18.8 0 1 72.96 93.53
  Q 74.54 92.47 76.43 92.23
  A 0.60 0.53 -3.6 0 0 76.96 91.70
  L 76.95 84.30
  A 0.37 0.35 -9.5 0 0 76.47 83.97
  L 36.93 97.61
  A 1.19 1.00 -11.3 0 0 36.13 98.61
  L 36.14 102.52
  A 0.47 0.39 -9.0 0 0 36.73 102.87
  Q 44.24 100.90 51.74 98.89
  Q 51.81 98.87 52.74 98.55
  Q 54.40 97.98 55.07 99.34
  A 1.59 1.59 68.9 0 1 54.08 101.58
  Q 50.44 102.62 47.26 103.20
  Q 46.96 103.26 46.76 103.40
  Q 46.09 103.90 47.50 103.89
  Q 64.52 103.75 81.54 103.75
  Q 81.61 103.75 83.45 103.91
  Q 85.78 104.11 85.15 101.73
  A 1.62 1.56 47.9 0 1 85.18 100.79
  Q 85.94 98.54 84.06 97.69
  Z
  M 96.82 103.19
  L 88.73 99.91
  A 0.45 0.37 12.5 0 0 88.11 100.22
  L 88.20 103.24
  A 0.61 0.53 -1.0 0 0 88.81 103.75
  L 96.70 103.75
  Q 98.20 103.75 96.82 103.19
  Z"
/>
<path fill="#ffffff" d="
  M 84.06 97.69
  Q 85.94 98.54 85.18 100.79
  A 1.62 1.56 47.9 0 0 85.15 101.73
  Q 85.78 104.11 83.45 103.91
  Q 81.61 103.75 81.54 103.75
  Q 64.52 103.75 47.50 103.89
  Q 46.09 103.90 46.76 103.40
  Q 46.96 103.26 47.26 103.20
  Q 50.44 102.62 54.08 101.58
  A 1.59 1.59 68.9 0 0 55.07 99.34
  Q 54.40 97.98 52.74 98.55
  Q 51.81 98.87 51.74 98.89
  Q 44.24 100.90 36.73 102.87
  A 0.47 0.39 -9.0 0 1 36.14 102.52
  L 36.13 98.61
  A 1.19 1.00 -11.3 0 1 36.93 97.61
  L 76.47 83.97
  A 0.37 0.35 -9.5 0 1 76.95 84.30
  L 76.96 91.70
  A 0.60 0.53 -3.6 0 1 76.43 92.23
  Q 74.54 92.47 72.96 93.53
  A 0.93 0.89 -18.8 0 0 72.55 94.32
  Q 72.63 96.48 75.15 95.78
  Q 76.32 95.46 77.51 95.13
  A 1.45 1.38 -39.4 0 1 78.45 95.20
  Q 81.27 96.42 84.06 97.69
  Z
  M 68.74 98.73
  Q 70.12 94.77 67.25 92.52
  Q 65.75 91.34 63.85 91.41
  Q 61.70 91.49 60.33 92.90
  Q 58.53 94.75 58.97 97.50
  Q 59.36 100.02 61.72 101.12
  Q 63.06 101.75 65.89 101.76
  Q 73.42 101.78 80.94 101.69
  A 1.41 0.92 14.7 0 0 81.83 101.39
  Q 82.46 100.77 82.02 99.92
  A 0.93 0.70 -9.4 0 0 81.26 99.52
  L 69.06 99.23
  A 0.38 0.36 -79.3 0 1 68.74 98.73
  Z"
/>
<path fill="#000000" d="
  M 209.37 98.05
  Q 211.88 97.88 211.41 94.92
  A 1.16 0.99 13.4 0 0 210.88 94.19
  Q 207.39 92.10 212.42 92.00
  A 0.79 0.76 -0.4 0 1 213.23 92.77
  L 213.21 98.20
  A 0.77 0.71 -11.4 0 1 212.72 98.88
  Q 204.74 101.98 202.67 95.57
  Q 201.33 91.43 203.30 88.09
  Q 205.81 83.82 211.97 85.66
  A 0.92 0.81 4.4 0 1 212.58 86.29
  Q 212.85 87.48 211.71 87.70
  Q 211.19 87.80 210.36 87.43
  Q 206.83 85.89 205.06 89.31
  Q 202.46 94.34 206.46 97.14
  Q 207.89 98.15 209.37 98.05
  Z"
/>
<path fill="#000000" d="
  M 157.13 91.27
  L 157.26 98.75
  A 0.72 0.72 -10.9 0 1 156.79 99.44
  Q 154.76 100.17 154.91 98.14
  Q 155.00 96.96 155.00 96.86
  Q 155.00 91.56 155.00 86.23
  Q 155.00 83.96 156.31 85.78
  L 162.04 93.72
  Q 162.93 94.95 162.95 93.46
  L 163.05 86.07
  A 0.66 0.59 86.4 0 1 163.55 85.44
  Q 164.18 85.34 164.79 85.55
  A 0.76 0.66 -82.2 0 1 165.25 86.25
  L 165.25 98.41
  Q 165.25 101.25 163.62 98.90
  L 158.09 90.92
  Q 157.10 89.50 157.13 91.27
  Z"
/>
<ellipse fill="#000000" cx="0.00" cy="0.00" transform="translate(277.12,86.40) rotate(-29.0)" rx="1.20" ry="1.13"/>
<path fill="#000000" d="
  M 188.95 90.73
  Q 187.36 90.37 188.46 89.27
  Q 188.49 89.24 189.11 88.83
  Q 189.73 88.42 189.61 87.49
  A 0.94 0.62 74.1 0 1 189.87 86.67
  Q 190.41 86.32 191.06 86.54
  A 0.62 0.50 -73.8 0 1 191.35 87.24
  Q 190.78 89.57 193.51 89.10
  A 0.69 0.56 -14.7 0 1 194.24 89.43
  Q 194.48 90.03 193.99 90.32
  Q 193.75 90.46 192.98 90.44
  Q 192.47 90.42 192.01 90.60
  A 0.80 0.74 -10.7 0 0 191.48 91.31
  L 191.48 96.69
  A 1.11 0.89 21.1 0 0 191.95 97.50
  Q 192.93 98.18 194.19 98.11
  A 0.65 0.54 -5.9 0 1 194.83 98.54
  Q 195.04 99.65 193.75 99.75
  Q 189.85 100.04 189.75 98.00
  L 189.43 91.32
  A 0.63 0.61 -85.3 0 0 188.95 90.73
  Z"
/>
<path fill="#000000" d="
  M 270.55 88.88
  Q 271.49 88.84 272.27 89.28
  A 0.78 0.60 25.1 0 1 272.67 90.05
  Q 272.49 90.69 271.22 90.45
  A 1.03 1.02 -84.5 0 0 270.00 91.46
  Q 270.00 93.13 269.83 95.24
  Q 269.60 98.28 272.43 98.11
  A 1.07 0.76 -14.5 0 1 273.27 98.43
  Q 273.94 99.33 272.57 99.62
  Q 268.53 100.51 268.00 96.50
  Q 267.81 95.06 267.81 91.43
  A 0.78 0.67 13.0 0 0 267.33 90.78
  Q 266.47 90.43 266.64 89.76
  Q 266.68 89.61 267.46 88.80
  Q 267.86 88.38 267.96 87.75
  A 1.42 0.88 86.0 0 1 268.39 86.93
  Q 270.37 85.45 270.12 88.45
  A 0.40 0.40 0.6 0 0 270.55 88.88
  Z"
/>
<path fill="#000000" d="
  M 171.56 97.94
  Q 172.97 98.21 174.53 97.68
  A 0.83 0.69 -28.5 0 1 175.36 97.84
  Q 176.45 99.03 174.28 99.62
  Q 170.17 100.73 168.21 97.95
  Q 166.83 96.00 167.14 93.44
  Q 167.51 90.39 170.40 89.41
  Q 172.70 88.64 174.58 89.51
  Q 176.89 90.59 176.81 93.78
  A 0.83 0.78 -0.0 0 1 176.00 94.54
  L 169.94 94.63
  A 0.62 0.59 -87.2 0 0 169.36 95.18
  Q 169.12 97.46 171.56 97.94
  Z
  M 173.57 91.18
  Q 171.16 89.99 169.56 92.38
  Q 169.14 93.00 169.89 93.00
  Q 171.64 93.00 173.14 93.00
  Q 173.89 93.00 174.29 92.70
  Q 175.24 92.01 173.57 91.18
  Z"
/>
<path fill="#000000" d="
  M 182.94 91.75
  Q 183.74 90.41 184.93 89.38
  Q 185.33 89.03 185.81 88.99
  Q 187.24 88.87 186.23 90.24
  Q 184.96 91.96 183.58 93.83
  A 0.71 0.68 -46.4 0 0 183.58 94.66
  L 186.87 98.93
  A 0.35 0.33 62.9 0 1 186.71 99.47
  Q 184.65 100.02 183.81 98.19
  Q 182.07 94.38 180.43 98.68
  Q 179.89 100.08 178.34 99.43
  A 0.44 0.42 28.5 0 1 178.13 98.79
  L 180.73 95.14
  A 1.36 1.16 -44.7 0 0 180.85 93.75
  Q 179.80 91.99 178.58 90.42
  Q 176.91 88.28 179.71 89.15
  A 1.17 0.97 83.7 0 1 180.36 89.78
  Q 180.96 91.20 182.25 91.96
  A 0.54 0.49 -59.6 0 0 182.94 91.75
  Z"
/>
<path fill="#000000" d="
  M 220.81 98.19
  Q 221.53 98.30 223.04 97.70
  A 0.96 0.73 -33.2 0 1 223.92 97.76
  Q 224.68 98.36 223.48 98.89
  Q 216.56 101.98 215.75 94.75
  Q 215.38 91.48 217.62 89.93
  Q 219.66 88.53 222.06 89.14
  Q 225.06 89.90 225.26 93.96
  A 0.59 0.58 -0.9 0 1 224.66 94.57
  L 218.24 94.50
  A 0.73 0.71 82.4 0 0 217.55 95.43
  Q 218.19 97.77 220.81 98.19
  Z
  M 221.85 91.09
  Q 219.42 90.12 218.14 92.04
  Q 217.50 93.00 218.63 92.99
  L 222.44 92.96
  A 0.51 0.46 -2.6 0 0 222.95 92.45
  Q 222.87 91.50 221.85 91.09
  Z"
/>
<path fill="#000000" d="
  M 229.27 89.74
  Q 235.98 86.90 235.14 95.90
  Q 235.00 97.40 235.43 98.86
  Q 235.89 100.43 234.02 99.65
  A 0.73 0.66 -76.6 0 1 233.62 98.93
  Q 233.94 95.96 233.58 92.99
  Q 233.26 90.37 230.68 90.79
  A 2.07 2.02 85.5 0 0 228.99 92.81
  L 228.95 98.94
  A 0.73 0.66 81.8 0 1 228.49 99.62
  Q 226.75 100.22 226.84 97.99
  Q 226.99 94.30 227.00 90.61
  Q 227.00 89.86 227.20 89.43
  Q 227.72 88.36 228.54 89.52
  A 0.63 0.60 60.6 0 0 229.27 89.74
  Z"
/>
<path fill="#000000" d="
  M 239.46 95.54
  Q 240.71 99.07 244.54 97.68
  A 1.68 0.97 -34.8 0 1 245.49 97.60
  Q 246.51 97.90 245.81 98.79
  Q 245.50 99.18 244.93 99.34
  Q 238.12 101.28 237.54 94.94
  Q 237.34 92.72 238.19 91.19
  Q 239.36 89.12 241.75 89.00
  Q 246.97 88.73 247.06 93.90
  A 0.76 0.76 -83.9 0 1 246.12 94.66
  Q 243.06 93.94 239.78 94.92
  A 0.48 0.48 -17.7 0 0 239.46 95.54
  Z
  M 243.81 91.19
  Q 241.55 89.44 240.06 91.81
  Q 239.08 93.38 240.27 93.15
  Q 241.06 92.99 241.88 92.99
  Q 246.18 93.02 243.81 91.19
  Z"
/>
<path fill="#000000" d="
  M 251.70 89.86
  Q 252.69 89.06 253.00 89.00
  Q 255.85 88.47 254.99 90.30
  A 0.82 0.68 11.2 0 1 254.25 90.70
  Q 253.09 90.65 252.22 91.28
  Q 251.51 91.80 251.31 92.99
  Q 250.81 95.84 250.97 98.75
  A 0.99 0.70 77.3 0 1 250.63 99.57
  Q 250.12 99.89 249.52 99.67
  A 0.81 0.71 -81.4 0 1 249.05 98.93
  L 249.05 89.81
  A 0.82 0.73 79.8 0 1 249.50 89.08
  Q 250.64 88.60 251.15 89.73
  A 0.35 0.35 58.2 0 0 251.70 89.86
  Z"
/>
<path fill="#000000" d="
  M 262.51 92.52
  Q 261.21 89.75 258.68 90.93
  Q 257.93 91.28 257.65 91.32
  Q 256.49 91.49 257.19 90.12
  A 1.40 1.23 1.5 0 1 257.92 89.51
  Q 264.74 87.15 264.26 94.55
  Q 264.16 96.22 264.81 97.77
  Q 265.93 100.41 262.72 99.21
  A 1.39 1.36 -54.1 0 0 261.36 99.44
  Q 259.96 100.57 257.99 99.24
  Q 254.69 97.01 257.70 94.21
  Q 259.60 92.44 262.18 92.94
  Q 262.76 93.05 262.51 92.52
  Z
  M 262.4522 94.9176
  A 2.43 1.60 -34.1 0 0 259.5430 94.9551
  A 2.43 1.60 -34.1 0 0 258.4278 97.6424
  A 2.43 1.60 -34.1 0 0 261.3370 97.6049
  A 2.43 1.60 -34.1 0 0 262.4522 94.9176
  Z"
/>
<path fill="#000000" d="
  M 275.20 90.48
  Q 273.91 90.18 274.86 89.31
  A 1.34 1.25 23.2 0 1 275.75 88.99
  L 277.44 89.03
  A 0.53 0.52 -89.4 0 1 277.95 89.56
  L 277.95 98.93
  A 0.70 0.67 82.3 0 1 277.46 99.60
  Q 275.40 100.15 276.00 97.25
  Q 276.42 95.24 275.77 91.05
  A 0.75 0.70 2.3 0 0 275.20 90.48
  Z"
/>
<path fill="#000000" d="
  M 284.8621 99.9995
  A 5.58 4.79 90.8 0 1 280.1505 94.3531
  A 5.58 4.79 90.8 0 1 285.0179 88.8405
  A 5.58 4.79 90.8 0 1 289.7295 94.4869
  A 5.58 4.79 90.8 0 1 284.8621 99.9995
  Z
  M 284.5799 98.1938
  A 3.79 2.76 95.3 0 0 287.6782 94.6749
  A 3.79 2.76 95.3 0 0 285.2801 90.6462
  A 3.79 2.76 95.3 0 0 282.1818 94.1651
  A 3.79 2.76 95.3 0 0 284.5799 98.1938
  Z"
/>
<path fill="#000000" d="
  M 294.16 89.73
  Q 297.96 87.37 299.75 91.50
  Q 300.56 93.35 299.87 99.07
  A 0.74 0.66 88.2 0 1 299.34 99.70
  Q 297.73 100.05 297.87 97.99
  Q 298.00 96.00 297.98 94.00
  Q 297.93 89.17 294.11 91.42
  A 1.15 1.14 -9.9 0 0 293.58 92.17
  Q 292.96 95.17 293.35 98.21
  Q 293.45 99.02 293.29 99.40
  Q 292.98 100.14 292.10 99.61
  A 1.00 0.79 -77.7 0 1 291.71 98.81
  L 291.60 89.82
  A 0.66 0.53 86.0 0 1 292.05 89.17
  Q 292.81 89.05 293.42 89.62
  A 0.65 0.58 50.2 0 0 294.16 89.73
  Z"
/>
<ellipse fill="#ffffff" cx="0.00" cy="0.00" transform="translate(284.93,94.42) rotate(95.3)" rx="3.79" ry="2.76"/>
<path fill="#ffffff" d="
  M 173.57 91.18
  Q 175.24 92.01 174.29 92.70
  Q 173.89 93.00 173.14 93.00
  Q 171.64 93.00 169.89 93.00
  Q 169.14 93.00 169.56 92.38
  Q 171.16 89.99 173.57 91.18
  Z"
/>
<path fill="#ffffff" d="
  M 221.85 91.09
  Q 222.87 91.50 222.95 92.45
  A 0.51 0.46 -2.6 0 1 222.44 92.96
  L 218.63 92.99
  Q 217.50 93.00 218.14 92.04
  Q 219.42 90.12 221.85 91.09
  Z"
/>
<path fill="#ffffff" d="
  M 243.81 91.19
  Q 246.18 93.02 241.88 92.99
  Q 241.06 92.99 240.27 93.15
  Q 239.08 93.38 240.06 91.81
  Q 241.55 89.44 243.81 91.19
  Z"
/>
<path fill="#000000" d="
  M 69.06 99.23
  L 81.26 99.52
  A 0.93 0.70 -9.4 0 1 82.02 99.92
  Q 82.46 100.77 81.83 101.39
  A 1.41 0.92 14.7 0 1 80.94 101.69
  Q 73.42 101.78 65.89 101.76
  Q 63.06 101.75 61.72 101.12
  Q 59.36 100.02 58.97 97.50
  Q 58.53 94.75 60.33 92.90
  Q 61.70 91.49 63.85 91.41
  Q 65.75 91.34 67.25 92.52
  Q 70.12 94.77 68.74 98.73
  A 0.38 0.36 -79.3 0 0 69.06 99.23
  Z
  M 66.81 96.52
  A 2.80 2.80 0.0 0 0 64.01 93.72
  A 2.80 2.80 0.0 0 0 61.21 96.52
  A 2.80 2.80 0.0 0 0 64.01 99.32
  A 2.80 2.80 0.0 0 0 66.81 96.52
  Z"
/>
<circle fill="#ffffff" cx="64.01" cy="96.52" r="2.80"/>
<ellipse fill="#ffffff" cx="0.00" cy="0.00" transform="translate(260.44,96.28) rotate(-34.1)" rx="2.43" ry="1.60"/>
<path fill="#ffffff" d="
  M 96.82 103.19
  Q 98.20 103.75 96.70 103.75
  L 88.81 103.75
  A 0.61 0.53 -1.0 0 1 88.20 103.24
  L 88.11 100.22
  A 0.45 0.37 12.5 0 1 88.73 99.91
  L 96.82 103.19
  Z"
/>
</svg>
